G04*
G04 #@! TF.GenerationSoftware,Altium Limited,Altium Designer,20.0.12 (288)*
G04*
G04 Layer_Physical_Order=1*
G04 Layer_Color=255*
%FSLAX44Y44*%
%MOMM*%
G71*
G01*
G75*
%ADD13O,0.4200X1.7800*%
%ADD14R,3.1000X3.0000*%
%ADD15R,0.9000X0.6000*%
%ADD16R,0.6000X0.9000*%
%ADD17R,0.8000X0.7000*%
%ADD18R,4.3500X4.5000*%
%ADD19R,5.6000X4.0000*%
%ADD20R,2.5000X2.3000*%
%ADD21R,3.0000X0.8000*%
%ADD34C,0.2540*%
%ADD35C,0.3810*%
%ADD36C,0.3000*%
%ADD37C,4.0000*%
%ADD38C,2.5000*%
%ADD39C,3.0000*%
%ADD40R,4.2000X1.8250*%
%ADD41R,1.4000X1.4500*%
%ADD42R,1.1250X6.9750*%
%ADD43R,11.9750X3.0750*%
%ADD44R,8.7250X3.4250*%
%ADD45R,5.6000X5.3000*%
%ADD46R,3.6500X9.0750*%
%ADD47R,1.7950X3.4750*%
%ADD48R,1.8250X4.7250*%
%ADD49C,2.0000*%
%ADD50C,3.2000*%
%ADD51C,0.7000*%
G36*
X969961Y569250D02*
Y565370D01*
X969600Y564250D01*
X957600D01*
Y562981D01*
X957000D01*
X955476Y562678D01*
X954185Y561815D01*
X952120Y559751D01*
X950850Y560277D01*
Y564250D01*
X903987D01*
X903692Y564692D01*
X903030Y565134D01*
X902250Y565289D01*
X884000D01*
X883220Y565134D01*
X882558Y564692D01*
X882116Y564030D01*
X881961Y563250D01*
Y561106D01*
X831000D01*
X831000Y561106D01*
X826687Y560682D01*
X822540Y559424D01*
X818718Y557381D01*
X815368Y554632D01*
X797618Y536882D01*
X794869Y533532D01*
X792826Y529710D01*
X791568Y525563D01*
X791144Y521250D01*
Y508750D01*
Y493750D01*
Y478750D01*
Y463750D01*
X791568Y459437D01*
X792826Y455290D01*
X794869Y451468D01*
X797618Y448118D01*
X818118Y427618D01*
X819125Y426792D01*
Y408000D01*
X819250Y407050D01*
Y387000D01*
X848250D01*
X848916Y386006D01*
Y360750D01*
X849170Y359474D01*
X849893Y358392D01*
X853142Y355143D01*
X854224Y354420D01*
X855500Y354166D01*
X857000D01*
Y352450D01*
X870000D01*
X870000Y352450D01*
Y352450D01*
X871171Y352114D01*
X874466Y348819D01*
X873940Y347549D01*
X731049D01*
Y569951D01*
X969385D01*
X969961Y569250D01*
D02*
G37*
G36*
X1104951Y378050D02*
X1092250D01*
Y376834D01*
X1086750D01*
Y378050D01*
X1083584D01*
Y382250D01*
X1083330Y383526D01*
X1082607Y384608D01*
X1078857Y388358D01*
X1077776Y389080D01*
X1076500Y389334D01*
X1071789D01*
Y434000D01*
X1071750Y434197D01*
Y461250D01*
X1011750D01*
Y434197D01*
X1011711Y434000D01*
Y381000D01*
X1011866Y380220D01*
X1012308Y379558D01*
X1012970Y379116D01*
X1013750Y378961D01*
X1055133D01*
X1056000Y378050D01*
X1056000Y377691D01*
Y374050D01*
X1062500D01*
X1069000D01*
X1069000Y377971D01*
X1069389Y378485D01*
X1069829Y378977D01*
X1070530Y379116D01*
X1071192Y379558D01*
X1071634Y380220D01*
X1071789Y381000D01*
Y382666D01*
X1075119D01*
X1076916Y380869D01*
Y378050D01*
X1073750D01*
Y368050D01*
X1086750D01*
Y370166D01*
X1092250D01*
Y368050D01*
X1104951D01*
Y362450D01*
X1100520D01*
X1100026Y362780D01*
X1098750Y363034D01*
X1097474Y362780D01*
X1096980Y362450D01*
X1092250D01*
Y360834D01*
X1086750D01*
Y362450D01*
X1073750D01*
Y360834D01*
X1069000D01*
Y362450D01*
X1056000D01*
Y360834D01*
X1052750D01*
X1051474Y360580D01*
X1050393Y359857D01*
X1044369Y353834D01*
X969500D01*
Y362200D01*
X966084D01*
Y364000D01*
X965830Y365276D01*
X965107Y366357D01*
X964838Y366627D01*
X965324Y367800D01*
X969500D01*
Y377800D01*
X956743D01*
X956465Y378215D01*
X954646Y379431D01*
X952500Y379858D01*
X950354Y379431D01*
X948535Y378215D01*
X947680Y376936D01*
X946217Y376847D01*
X946211Y376849D01*
X946206Y376856D01*
X944850Y377762D01*
X943250Y378080D01*
X941650Y377762D01*
X940294Y376856D01*
X939706D01*
X938350Y377762D01*
X936750Y378080D01*
X935150Y377762D01*
X933794Y376856D01*
X933206D01*
X931850Y377762D01*
X931250Y377881D01*
Y367100D01*
X929250D01*
Y377881D01*
X928650Y377762D01*
X927294Y376856D01*
X926706D01*
X925350Y377762D01*
X923750Y378080D01*
X922150Y377762D01*
X920794Y376856D01*
X920206D01*
X918850Y377762D01*
X917250Y378080D01*
X915650Y377762D01*
X914294Y376856D01*
X913706D01*
X912350Y377762D01*
X910750Y378080D01*
X909150Y377762D01*
X907794Y376856D01*
X907206D01*
X905850Y377762D01*
X904250Y378080D01*
X902650Y377762D01*
X901294Y376856D01*
X900388Y375500D01*
X900070Y373900D01*
Y370177D01*
X898992Y369458D01*
X891985Y362450D01*
X879500D01*
Y355011D01*
X878230Y354485D01*
X873118Y359598D01*
X872036Y360320D01*
X870760Y360574D01*
X870000D01*
Y362450D01*
X857000D01*
Y362450D01*
X856854Y362397D01*
X855584Y363284D01*
Y395750D01*
X855330Y397026D01*
X854607Y398107D01*
X849857Y402858D01*
X848776Y403580D01*
X848250Y403685D01*
Y407049D01*
X848375Y408000D01*
Y416394D01*
X857750D01*
X862063Y416818D01*
X866210Y418076D01*
X870032Y420119D01*
X873382Y422868D01*
X876131Y426218D01*
X878174Y430040D01*
X879432Y434187D01*
X879856Y438500D01*
X879432Y442813D01*
X878174Y446960D01*
X876131Y450782D01*
X873382Y454132D01*
X870032Y456881D01*
X866210Y458924D01*
X862063Y460182D01*
X857750Y460606D01*
X847657D01*
X835356Y472907D01*
Y478750D01*
Y493750D01*
Y508750D01*
Y512093D01*
X840157Y516894D01*
X881961D01*
Y516000D01*
X882116Y515220D01*
X882500Y514645D01*
Y514050D01*
X883551D01*
X884000Y513961D01*
X902250D01*
X903030Y514116D01*
X903692Y514558D01*
X904134Y515220D01*
X904140Y515250D01*
X913670D01*
X914055Y513980D01*
X913435Y513565D01*
X907935Y508065D01*
X907557Y507500D01*
X902700D01*
Y502000D01*
X900700D01*
Y507500D01*
X896273Y507500D01*
X895500Y508450D01*
X894928Y508450D01*
X890000D01*
Y503450D01*
Y498450D01*
X895500Y498450D01*
X895620Y497737D01*
X895700Y496500D01*
Y495250D01*
X895700D01*
Y490750D01*
X901700D01*
Y489750D01*
X902700D01*
Y484250D01*
X906768D01*
Y481750D01*
X902700D01*
Y476250D01*
X901700D01*
Y475250D01*
X895700D01*
Y470750D01*
X895700D01*
Y469500D01*
X895700D01*
Y458500D01*
X897719D01*
Y447050D01*
X898022Y445526D01*
X898885Y444235D01*
X904411Y438709D01*
X904366Y438368D01*
X903911Y437413D01*
X902650Y437162D01*
X901294Y436256D01*
X900388Y434900D01*
X900070Y433300D01*
Y427500D01*
X904250D01*
Y426500D01*
X905250D01*
Y415719D01*
X905850Y415838D01*
X907206Y416744D01*
X907794D01*
X909150Y415838D01*
X910750Y415520D01*
X912350Y415838D01*
X913706Y416744D01*
X914294D01*
X915650Y415838D01*
X917250Y415520D01*
X918850Y415838D01*
X920206Y416744D01*
X920794D01*
X922150Y415838D01*
X923750Y415520D01*
X925350Y415838D01*
X926706Y416744D01*
X927294D01*
X928650Y415838D01*
X930250Y415520D01*
X931850Y415838D01*
X933206Y416744D01*
X933794D01*
X935150Y415838D01*
X935750Y415719D01*
Y426500D01*
X937750D01*
Y415719D01*
X938350Y415838D01*
X939706Y416744D01*
X940294D01*
X941650Y415838D01*
X943250Y415520D01*
X944850Y415838D01*
X946206Y416744D01*
X947112Y418100D01*
X947430Y419700D01*
Y433300D01*
X947232Y434300D01*
Y435101D01*
X949515Y437385D01*
X950378Y438676D01*
X950682Y440200D01*
Y440250D01*
X951700D01*
Y453250D01*
X941700D01*
Y440831D01*
X940435Y439565D01*
X939572Y438274D01*
X939501Y437920D01*
X938774Y437441D01*
X938067Y437218D01*
X936750Y437480D01*
X936374Y437980D01*
X936600Y439250D01*
X936600D01*
Y452250D01*
X935582D01*
Y458500D01*
X958643D01*
Y453250D01*
X957300D01*
Y440250D01*
X967300D01*
Y453250D01*
X966607D01*
Y458461D01*
X999500D01*
X1000280Y458616D01*
X1000942Y459058D01*
X1001384Y459720D01*
X1001539Y460500D01*
Y514961D01*
X1069750D01*
X1070530Y515116D01*
X1071192Y515558D01*
X1071634Y516220D01*
X1071789Y517000D01*
Y551250D01*
X1071750Y551447D01*
Y569951D01*
X1104951D01*
Y378050D01*
D02*
G37*
%LPC*%
G36*
X758500Y530505D02*
Y519250D01*
X769755D01*
X769441Y521633D01*
X768232Y524552D01*
X766309Y527058D01*
X763802Y528982D01*
X760883Y530191D01*
X758500Y530505D01*
D02*
G37*
G36*
X757000D02*
X754617Y530191D01*
X751698Y528982D01*
X749192Y527058D01*
X747268Y524552D01*
X746059Y521633D01*
X745745Y519250D01*
X757000D01*
Y530505D01*
D02*
G37*
G36*
Y517750D02*
X745745D01*
X746059Y515367D01*
X747268Y512448D01*
X749192Y509941D01*
X751698Y508018D01*
X754617Y506809D01*
X757000Y506495D01*
Y517750D01*
D02*
G37*
G36*
X769755D02*
X758500D01*
Y506495D01*
X760883Y506809D01*
X763802Y508018D01*
X766309Y509941D01*
X768232Y512448D01*
X769441Y515367D01*
X769755Y517750D01*
D02*
G37*
G36*
X758500Y420505D02*
Y409250D01*
X769755D01*
X769441Y411633D01*
X768232Y414552D01*
X766309Y417058D01*
X763802Y418982D01*
X760883Y420191D01*
X758500Y420505D01*
D02*
G37*
G36*
X757000D02*
X754617Y420191D01*
X751698Y418982D01*
X749192Y417058D01*
X747268Y414552D01*
X746059Y411633D01*
X745745Y409250D01*
X757000D01*
Y420505D01*
D02*
G37*
G36*
Y407750D02*
X745745D01*
X746059Y405367D01*
X747268Y402448D01*
X749192Y399941D01*
X751698Y398018D01*
X754617Y396809D01*
X757000Y396495D01*
Y407750D01*
D02*
G37*
G36*
X769755D02*
X758500D01*
Y396495D01*
X760883Y396809D01*
X763802Y398018D01*
X766309Y399941D01*
X768232Y402448D01*
X769441Y405367D01*
X769755Y407750D01*
D02*
G37*
G36*
X847500Y378050D02*
X842000D01*
Y374050D01*
X847500D01*
Y378050D01*
D02*
G37*
G36*
X840000D02*
X834500D01*
Y374050D01*
X840000D01*
Y378050D01*
D02*
G37*
G36*
X847500Y372050D02*
X842000D01*
Y368050D01*
X847500D01*
Y372050D01*
D02*
G37*
G36*
X840000D02*
X834500D01*
Y368050D01*
X840000D01*
Y372050D01*
D02*
G37*
G36*
X826500Y370358D02*
X824354Y369931D01*
X822535Y368715D01*
X821319Y366896D01*
X820892Y364750D01*
X821319Y362604D01*
X822535Y360785D01*
X824354Y359569D01*
X826500Y359142D01*
X827245Y359290D01*
X831393Y355143D01*
X832474Y354420D01*
X833750Y354166D01*
X834500D01*
Y352450D01*
X847500D01*
Y362450D01*
X834500D01*
Y362450D01*
X833803Y362161D01*
X831960Y364005D01*
X832108Y364750D01*
X831681Y366896D01*
X830465Y368715D01*
X828646Y369931D01*
X826500Y370358D01*
D02*
G37*
G36*
X888000Y508450D02*
X882500D01*
Y504450D01*
X888000D01*
Y508450D01*
D02*
G37*
G36*
Y502450D02*
X882500D01*
Y498450D01*
X888000D01*
Y502450D01*
D02*
G37*
G36*
X858500Y506513D02*
Y489250D01*
X875763D01*
X875490Y492029D01*
X874460Y495422D01*
X872789Y498549D01*
X870539Y501289D01*
X867799Y503539D01*
X864672Y505210D01*
X861279Y506240D01*
X858500Y506513D01*
D02*
G37*
G36*
X857000D02*
X854221Y506240D01*
X850828Y505210D01*
X847701Y503539D01*
X844960Y501289D01*
X842711Y498549D01*
X841040Y495422D01*
X840011Y492029D01*
X839737Y489250D01*
X857000D01*
Y506513D01*
D02*
G37*
G36*
X900700Y488750D02*
X895700D01*
Y484250D01*
X900700D01*
Y488750D01*
D02*
G37*
G36*
Y481750D02*
X895700D01*
Y477250D01*
X900700D01*
Y481750D01*
D02*
G37*
G36*
X857000Y487750D02*
X839737D01*
X840011Y484971D01*
X841040Y481578D01*
X842711Y478451D01*
X844960Y475710D01*
X847701Y473461D01*
X850828Y471790D01*
X854221Y470760D01*
X857000Y470487D01*
Y487750D01*
D02*
G37*
G36*
X875763D02*
X858500D01*
Y470487D01*
X861279Y470760D01*
X864672Y471790D01*
X867799Y473461D01*
X870539Y475710D01*
X872789Y478451D01*
X874460Y481578D01*
X875490Y484971D01*
X875763Y487750D01*
D02*
G37*
G36*
X903250Y425500D02*
X900070D01*
Y419700D01*
X900388Y418100D01*
X901294Y416744D01*
X902650Y415838D01*
X903250Y415719D01*
Y425500D01*
D02*
G37*
G36*
X891250Y414000D02*
X877750D01*
Y401500D01*
X891250D01*
Y414000D01*
D02*
G37*
G36*
X875750D02*
X862250D01*
Y401500D01*
X875750D01*
Y414000D01*
D02*
G37*
G36*
X1005250Y403000D02*
X989250D01*
Y398000D01*
X1005250D01*
Y403000D01*
D02*
G37*
G36*
X987250D02*
X971250D01*
Y398000D01*
X987250D01*
Y403000D01*
D02*
G37*
G36*
X941250Y413800D02*
X924750D01*
Y397800D01*
X941250D01*
Y413800D01*
D02*
G37*
G36*
X922750D02*
X906250D01*
Y397800D01*
X922750D01*
Y413800D01*
D02*
G37*
G36*
X1005250Y396000D02*
X989250D01*
Y391000D01*
X1005250D01*
Y396000D01*
D02*
G37*
G36*
X987250D02*
X971250D01*
Y391000D01*
X987250D01*
Y396000D01*
D02*
G37*
G36*
X891250Y399500D02*
X877750D01*
Y387000D01*
X891250D01*
Y399500D01*
D02*
G37*
G36*
X875750D02*
X862250D01*
Y387000D01*
X875750D01*
Y399500D01*
D02*
G37*
G36*
X941250Y395800D02*
X924750D01*
Y379800D01*
X941250D01*
Y395800D01*
D02*
G37*
G36*
X922750D02*
X906250D01*
Y379800D01*
X922750D01*
Y395800D01*
D02*
G37*
G36*
X892500Y378050D02*
X887000D01*
Y374050D01*
X892500D01*
Y378050D01*
D02*
G37*
G36*
X885000D02*
X879500D01*
Y374050D01*
X885000D01*
Y378050D01*
D02*
G37*
G36*
X870000D02*
X864500D01*
Y374050D01*
X870000D01*
Y378050D01*
D02*
G37*
G36*
X862500D02*
X857000D01*
Y374050D01*
X862500D01*
Y378050D01*
D02*
G37*
G36*
X1069000Y372050D02*
X1063500D01*
Y368050D01*
X1069000D01*
Y372050D01*
D02*
G37*
G36*
X1061500D02*
X1056000D01*
Y368050D01*
X1061500D01*
Y372050D01*
D02*
G37*
G36*
X892500Y372050D02*
X887000D01*
Y368050D01*
X892500D01*
Y372050D01*
D02*
G37*
G36*
X885000D02*
X879500D01*
Y368050D01*
X885000D01*
Y372050D01*
D02*
G37*
G36*
X870000Y372050D02*
X864500D01*
Y368050D01*
X870000D01*
Y372050D01*
D02*
G37*
G36*
X862500D02*
X857000D01*
Y368050D01*
X862500D01*
Y372050D01*
D02*
G37*
%LPD*%
D13*
X904250Y367100D02*
D03*
X910750D02*
D03*
X917250D02*
D03*
X923750D02*
D03*
X930250D02*
D03*
X936750D02*
D03*
X943250D02*
D03*
X904250Y426500D02*
D03*
X910750D02*
D03*
X917250D02*
D03*
X923750D02*
D03*
X930250D02*
D03*
X936750D02*
D03*
X943250D02*
D03*
D14*
X923750Y396800D02*
D03*
D15*
X963000Y357200D02*
D03*
Y372800D02*
D03*
X1080250Y357450D02*
D03*
Y373050D02*
D03*
X1062500D02*
D03*
Y357450D02*
D03*
X886000Y373050D02*
D03*
Y357450D02*
D03*
X841000D02*
D03*
Y373050D02*
D03*
X889000Y519050D02*
D03*
Y503450D02*
D03*
X1098750Y373050D02*
D03*
Y357450D02*
D03*
X863500Y373050D02*
D03*
Y357450D02*
D03*
D16*
X946700Y446750D02*
D03*
X962300D02*
D03*
X916000Y445750D02*
D03*
X931600D02*
D03*
D17*
X901700Y502000D02*
D03*
Y489750D02*
D03*
Y476250D02*
D03*
Y464000D02*
D03*
X962950D02*
D03*
Y476250D02*
D03*
Y489750D02*
D03*
Y502000D02*
D03*
X963600Y520750D02*
D03*
Y533000D02*
D03*
Y546500D02*
D03*
Y558750D02*
D03*
X902350D02*
D03*
Y546500D02*
D03*
Y533000D02*
D03*
Y520750D02*
D03*
D18*
X938200Y483000D02*
D03*
X927100Y539750D02*
D03*
D19*
X1041750Y549250D02*
D03*
Y439250D02*
D03*
D20*
X876750Y400500D02*
D03*
X833750D02*
D03*
D21*
X1039304Y397000D02*
D03*
X988250D02*
D03*
D34*
X1096550Y357500D02*
X1098750Y359700D01*
X1052750Y357500D02*
X1096550D01*
X1045750Y350500D02*
X1052750Y357500D01*
X928978Y350500D02*
X1045750D01*
X833750Y357500D02*
X841250D01*
X949500Y354750D02*
X952500Y357750D01*
X938250Y354750D02*
X949500D01*
X936750Y356250D02*
X938250Y354750D01*
X954000Y372750D02*
X960700D01*
X952500Y374250D02*
X954000Y372750D01*
X962750Y359250D02*
X964250Y357750D01*
X959650Y367100D02*
X962750Y364000D01*
Y359250D02*
Y364000D01*
X1001250Y373250D02*
X1060450D01*
X996250Y378250D02*
X1001250Y373250D01*
X1080250Y375300D02*
X1082050Y373500D01*
X1096700D01*
X826500Y364750D02*
X833750Y357500D01*
X901350Y367100D02*
X904250D01*
X892250Y358000D02*
X901350Y367100D01*
X889500Y358000D02*
X892250D01*
X878000Y350000D02*
X906000D01*
X870760Y357240D02*
X878000Y350000D01*
X867760Y357240D02*
X870760D01*
X855500Y357500D02*
X860570D01*
X852250Y360750D02*
X855500Y357500D01*
X852250Y360750D02*
Y395750D01*
X906000Y350000D02*
X910750Y354750D01*
X996250Y378250D02*
Y388000D01*
X994250Y390000D02*
X996250Y388000D01*
X1066250Y386000D02*
X1076500D01*
X1065750Y386500D02*
X1066250Y386000D01*
X1076500D02*
X1080250Y382250D01*
Y375300D02*
Y382250D01*
X847500Y400500D02*
X852250Y395750D01*
X833750Y400500D02*
X847500D01*
X925228Y354250D02*
X928978Y350500D01*
X923750Y354250D02*
X925228D01*
X943250Y367100D02*
X959650D01*
X936750Y356250D02*
Y367100D01*
X910750Y354750D02*
Y367100D01*
D35*
X933100Y406150D02*
X936750Y409800D01*
X930250Y367100D02*
Y390300D01*
X852250Y433000D02*
X857750Y438500D01*
X923750Y354250D02*
Y367100D01*
Y396800D02*
X924125Y397175D01*
X886000Y524250D02*
X893000Y531250D01*
X930250Y367100D02*
X930325Y367025D01*
X936750Y409800D02*
Y426500D01*
X914500Y456500D02*
X921500D01*
X910750Y460250D02*
X914500Y456500D01*
X921500D02*
X923750Y454250D01*
X931600Y465914D02*
X932547Y466860D01*
X931600Y445750D02*
Y465914D01*
X932000Y439000D02*
Y445350D01*
X931600Y445750D02*
X932000Y445350D01*
X930325Y437325D02*
X932000Y439000D01*
X930325Y426575D02*
Y437325D01*
X930250Y426500D02*
X930325Y426575D01*
X916000Y438750D02*
Y445750D01*
Y438750D02*
X917175Y437575D01*
Y426575D02*
Y437575D01*
Y426575D02*
X917250Y426500D01*
X957000Y559000D02*
X963350D01*
X963600Y558750D01*
X954500Y556500D02*
X957000Y559000D01*
X954500Y516250D02*
Y556500D01*
X949000Y510750D02*
X954500Y516250D01*
X916250Y510750D02*
X949000D01*
X910750Y505250D02*
X916250Y510750D01*
X910750Y460250D02*
Y505250D01*
X923750Y426500D02*
Y454250D01*
X910750Y426500D02*
Y438000D01*
X901700Y447050D02*
X910750Y438000D01*
X901700Y447050D02*
Y464000D01*
X946700Y440200D02*
Y446750D01*
X943250Y436750D02*
X946700Y440200D01*
X943250Y426500D02*
Y436750D01*
X962300Y446750D02*
X962625Y447075D01*
Y463675D01*
X962950Y464000D01*
X917250Y426500D02*
X917325Y426575D01*
X946450Y447000D02*
X946700Y446750D01*
D36*
X924125Y397175D02*
X930250Y391050D01*
X922438Y395563D02*
X922812Y395187D01*
D37*
X857750Y488883D02*
X881250D01*
X859250Y539000D02*
X882750D01*
X844250D02*
X859250D01*
X831000D02*
X844250D01*
X813250Y521250D02*
X831000Y539000D01*
X813250Y508750D02*
Y521250D01*
Y493750D02*
Y508750D01*
X838500Y438500D02*
X857750D01*
X813250Y463750D02*
X833750Y443250D01*
X813250Y463750D02*
Y463750D01*
Y478750D01*
Y493750D01*
X925350Y541500D02*
X927100Y539750D01*
D38*
X833750Y408000D02*
Y443250D01*
D39*
X856250Y488500D02*
X856633Y488883D01*
D40*
X993000Y560125D02*
D03*
D41*
X897000Y426500D02*
D03*
D42*
X889375Y439875D02*
D03*
D43*
X943625Y397125D02*
D03*
D44*
X1026125Y534125D02*
D03*
D45*
X1041750Y407500D02*
D03*
D46*
X981250Y505875D02*
D03*
D47*
X892725Y489375D02*
D03*
D48*
X893125Y539625D02*
D03*
D49*
X757750Y518500D02*
D03*
Y408500D02*
D03*
D50*
X857750Y438500D02*
D03*
Y488500D02*
D03*
D51*
X952500Y357750D02*
D03*
X1085500Y465125D02*
D03*
Y519375D02*
D03*
X1051750Y489000D02*
D03*
X990000Y442750D02*
D03*
X757000Y551250D02*
D03*
X783750Y430250D02*
D03*
X795750Y405500D02*
D03*
X757500Y445250D02*
D03*
X757250Y475500D02*
D03*
X1085500Y438000D02*
D03*
Y546500D02*
D03*
Y492250D02*
D03*
X1016750Y488000D02*
D03*
X952500Y374250D02*
D03*
X826500Y364750D02*
D03*
X923750Y354250D02*
D03*
X842250Y456000D02*
D03*
X821750Y451750D02*
D03*
X834500Y445250D02*
D03*
X821250Y437750D02*
D03*
X808250Y448500D02*
D03*
X826500Y551750D02*
D03*
X831000Y539000D02*
D03*
X813750Y538250D02*
D03*
X844250Y524500D02*
D03*
X874250D02*
D03*
X859250D02*
D03*
X874250Y539500D02*
D03*
X859250D02*
D03*
X844250Y554500D02*
D03*
X874250D02*
D03*
X859250D02*
D03*
X844250Y539500D02*
D03*
X798250Y463750D02*
D03*
X828250D02*
D03*
X813250D02*
D03*
X798250Y523750D02*
D03*
Y493750D02*
D03*
X813250Y523750D02*
D03*
X828250D02*
D03*
X813250Y508750D02*
D03*
X828250D02*
D03*
X798250D02*
D03*
X813250Y493750D02*
D03*
X828250D02*
D03*
X813250Y478750D02*
D03*
X828250D02*
D03*
X798250D02*
D03*
X832250Y429750D02*
D03*
Y414750D02*
D03*
X874000Y399750D02*
D03*
X832250D02*
D03*
X994250Y390000D02*
D03*
X979250Y405000D02*
D03*
X964250D02*
D03*
X949250D02*
D03*
X904250D02*
D03*
X919250D02*
D03*
X934250D02*
D03*
X889250Y390000D02*
D03*
X1019000Y453000D02*
D03*
X1034000D02*
D03*
X1064000D02*
D03*
Y438000D02*
D03*
X1019000Y423000D02*
D03*
X1049000D02*
D03*
X1064000D02*
D03*
X1034000Y408000D02*
D03*
X934250Y390000D02*
D03*
X919250D02*
D03*
X904250D02*
D03*
X949250D02*
D03*
X964250D02*
D03*
X979250D02*
D03*
X994250Y405000D02*
D03*
X889250D02*
D03*
X1034000Y438000D02*
D03*
X1019000D02*
D03*
X1049000Y453000D02*
D03*
Y438000D02*
D03*
Y408000D02*
D03*
X1064000D02*
D03*
X1019000D02*
D03*
X1034000Y423000D02*
D03*
X927250Y524500D02*
D03*
X942250Y554500D02*
D03*
X927250D02*
D03*
X889000Y555750D02*
D03*
Y540750D02*
D03*
X912250Y554500D02*
D03*
X889250Y435000D02*
D03*
Y450000D02*
D03*
X942250Y524500D02*
D03*
X912250Y539500D02*
D03*
Y524500D02*
D03*
X889250Y480000D02*
D03*
Y420000D02*
D03*
Y465000D02*
D03*
X942250Y539500D02*
D03*
X927250D02*
D03*
X973000Y544000D02*
D03*
X988000Y484000D02*
D03*
Y469000D02*
D03*
Y514000D02*
D03*
Y499000D02*
D03*
X1048000Y529000D02*
D03*
X1003000D02*
D03*
X988000D02*
D03*
X1048000Y559000D02*
D03*
X1063000Y544000D02*
D03*
X1033000D02*
D03*
X1018000D02*
D03*
X1048000D02*
D03*
X1063000Y559000D02*
D03*
X1033000D02*
D03*
X973000Y514000D02*
D03*
Y499000D02*
D03*
X1018000Y529000D02*
D03*
X1033000D02*
D03*
X1063000D02*
D03*
X1003000Y544000D02*
D03*
X1018000Y559000D02*
D03*
X988000Y544000D02*
D03*
X973000Y529000D02*
D03*
Y484000D02*
D03*
Y469000D02*
D03*
X1003000Y559000D02*
D03*
X988000D02*
D03*
X922250Y497500D02*
D03*
X937250D02*
D03*
X952250D02*
D03*
Y482500D02*
D03*
X937250D02*
D03*
X922250D02*
D03*
Y467500D02*
D03*
X937250D02*
D03*
X952250D02*
D03*
M02*
