G04*
G04 #@! TF.GenerationSoftware,Altium Limited,Altium Designer,20.0.12 (288)*
G04*
G04 Layer_Physical_Order=2*
G04 Layer_Color=16711680*
%FSLAX44Y44*%
%MOMM*%
G71*
G01*
G75*
%ADD34C,0.2540*%
%ADD37C,4.0000*%
%ADD39C,3.0000*%
%ADD43R,11.9750X3.0750*%
%ADD49C,2.0000*%
%ADD50C,3.2000*%
%ADD51C,0.7000*%
%ADD52R,2.7000X2.3000*%
%ADD53R,2.5000X4.8000*%
%ADD54R,5.6000X7.8250*%
%ADD55R,4.5000X4.3250*%
%ADD56R,3.9750X6.9500*%
%ADD57R,11.0000X5.2250*%
%ADD58R,2.5000X9.7750*%
%ADD59R,6.5000X4.6250*%
G36*
X1104951Y347549D02*
X924763D01*
X924638Y348819D01*
X925896Y349069D01*
X927715Y350285D01*
X928931Y352104D01*
X929358Y354250D01*
X928931Y356396D01*
X927715Y358215D01*
X925896Y359431D01*
X923750Y359858D01*
X921604Y359431D01*
X919785Y358215D01*
X918569Y356396D01*
X918142Y354250D01*
X918569Y352104D01*
X919785Y350285D01*
X921604Y349069D01*
X922862Y348819D01*
X922737Y347549D01*
X731049D01*
Y569951D01*
X957135D01*
X957711Y569250D01*
Y530250D01*
Y517000D01*
Y506039D01*
X917250D01*
X916470Y505884D01*
X915808Y505442D01*
X915366Y504780D01*
X915211Y504000D01*
Y460750D01*
X915366Y459970D01*
X915808Y459308D01*
X916470Y458866D01*
X917250Y458711D01*
X999500D01*
X1000280Y458866D01*
X1000942Y459308D01*
X1001384Y459970D01*
X1001539Y460750D01*
Y514961D01*
X1069750D01*
X1070530Y515116D01*
X1071192Y515558D01*
X1071634Y516220D01*
X1071789Y517000D01*
Y569250D01*
X1072365Y569951D01*
X1104951D01*
Y347549D01*
D02*
G37*
%LPC*%
G36*
X948750Y564539D02*
X883750D01*
X882970Y564384D01*
X882308Y563942D01*
X881866Y563280D01*
X881711Y562500D01*
Y561106D01*
X831000D01*
X831000Y561106D01*
X826687Y560682D01*
X822540Y559424D01*
X818718Y557381D01*
X815368Y554632D01*
X797618Y536882D01*
X794869Y533532D01*
X792826Y529710D01*
X791568Y525563D01*
X791144Y521250D01*
Y463750D01*
X791568Y459437D01*
X792826Y455290D01*
X794869Y451468D01*
X797618Y448118D01*
X815868Y429868D01*
X819211Y427125D01*
Y389000D01*
X819366Y388220D01*
X819808Y387558D01*
X820470Y387116D01*
X821250Y386961D01*
X830166D01*
Y384500D01*
X830420Y383224D01*
X831143Y382142D01*
X840642Y372643D01*
X841724Y371920D01*
X843000Y371666D01*
X947612D01*
X948535Y370285D01*
X950354Y369069D01*
X952500Y368642D01*
X954646Y369069D01*
X956465Y370285D01*
X957681Y372104D01*
X958108Y374250D01*
X957681Y376396D01*
X956465Y378215D01*
X954646Y379431D01*
X952500Y379858D01*
X950354Y379431D01*
X948712Y378334D01*
X844381D01*
X837024Y385691D01*
X837293Y386961D01*
X846250D01*
X847030Y387116D01*
X847692Y387558D01*
X848134Y388220D01*
X848289Y389000D01*
Y416394D01*
X857750D01*
X862063Y416818D01*
X866210Y418076D01*
X870032Y420119D01*
X873382Y422868D01*
X876131Y426218D01*
X878174Y430040D01*
X879432Y434187D01*
X879856Y438500D01*
X879432Y442813D01*
X878174Y446960D01*
X876131Y450782D01*
X873382Y454132D01*
X870032Y456881D01*
X866210Y458924D01*
X862063Y460182D01*
X857750Y460606D01*
X847563D01*
X847132Y461132D01*
X835356Y472907D01*
Y512093D01*
X840157Y516894D01*
X881711D01*
Y516250D01*
X881866Y515470D01*
X882308Y514808D01*
X882970Y514366D01*
X883750Y514211D01*
X948750D01*
X949530Y514366D01*
X950192Y514808D01*
X950634Y515470D01*
X950789Y516250D01*
Y562500D01*
X950634Y563280D01*
X950192Y563942D01*
X949530Y564384D01*
X948750Y564539D01*
D02*
G37*
G36*
X758500Y530505D02*
Y519250D01*
X769755D01*
X769441Y521633D01*
X768232Y524552D01*
X766309Y527058D01*
X763802Y528982D01*
X760883Y530191D01*
X758500Y530505D01*
D02*
G37*
G36*
X757000D02*
X754617Y530191D01*
X751698Y528982D01*
X749192Y527058D01*
X747268Y524552D01*
X746059Y521633D01*
X745745Y519250D01*
X757000D01*
Y530505D01*
D02*
G37*
G36*
Y517750D02*
X745745D01*
X746059Y515367D01*
X747268Y512448D01*
X749192Y509941D01*
X751698Y508018D01*
X754617Y506809D01*
X757000Y506495D01*
Y517750D01*
D02*
G37*
G36*
X769755D02*
X758500D01*
Y506495D01*
X760883Y506809D01*
X763802Y508018D01*
X766309Y509941D01*
X768232Y512448D01*
X769441Y515367D01*
X769755Y517750D01*
D02*
G37*
G36*
X858500Y506513D02*
Y489250D01*
X875763D01*
X875490Y492029D01*
X874460Y495422D01*
X872789Y498549D01*
X870539Y501289D01*
X867799Y503539D01*
X864672Y505210D01*
X861279Y506240D01*
X858500Y506513D01*
D02*
G37*
G36*
X857000D02*
X854221Y506240D01*
X850828Y505210D01*
X847701Y503539D01*
X844960Y501289D01*
X842711Y498549D01*
X841040Y495422D01*
X840011Y492029D01*
X839737Y489250D01*
X857000D01*
Y506513D01*
D02*
G37*
G36*
Y487750D02*
X839737D01*
X840011Y484971D01*
X841040Y481578D01*
X842711Y478451D01*
X844960Y475710D01*
X847701Y473461D01*
X850828Y471790D01*
X854221Y470760D01*
X857000Y470487D01*
Y487750D01*
D02*
G37*
G36*
X875763D02*
X858500D01*
Y470487D01*
X861279Y470760D01*
X864672Y471790D01*
X867799Y473461D01*
X870539Y475710D01*
X872789Y478451D01*
X874460Y481578D01*
X875490Y484971D01*
X875763Y487750D01*
D02*
G37*
G36*
X758500Y420505D02*
Y409250D01*
X769755D01*
X769441Y411633D01*
X768232Y414552D01*
X766309Y417058D01*
X763802Y418982D01*
X760883Y420191D01*
X758500Y420505D01*
D02*
G37*
G36*
X757000D02*
X754617Y420191D01*
X751698Y418982D01*
X749192Y417058D01*
X747268Y414552D01*
X746059Y411633D01*
X745745Y409250D01*
X757000D01*
Y420505D01*
D02*
G37*
G36*
Y407750D02*
X745745D01*
X746059Y405367D01*
X747268Y402448D01*
X749192Y399941D01*
X751698Y398018D01*
X754617Y396809D01*
X757000Y396495D01*
Y407750D01*
D02*
G37*
G36*
X769755D02*
X758500D01*
Y396495D01*
X760883Y396809D01*
X763802Y398018D01*
X766309Y399941D01*
X768232Y402448D01*
X769441Y405367D01*
X769755Y407750D01*
D02*
G37*
G36*
X1069750Y461289D02*
X1013750D01*
X1012970Y461134D01*
X1012308Y460692D01*
X1011866Y460030D01*
X1011711Y459250D01*
Y381000D01*
X1011866Y380220D01*
X1012308Y379558D01*
X1012970Y379116D01*
X1013750Y378961D01*
X1069750D01*
X1070530Y379116D01*
X1071192Y379558D01*
X1071634Y380220D01*
X1071789Y381000D01*
Y459250D01*
X1071634Y460030D01*
X1071192Y460692D01*
X1070530Y461134D01*
X1069750Y461289D01*
D02*
G37*
G36*
X826500Y370358D02*
X824354Y369931D01*
X822535Y368715D01*
X821319Y366896D01*
X820892Y364750D01*
X821319Y362604D01*
X822535Y360785D01*
X824354Y359569D01*
X826500Y359142D01*
X828646Y359569D01*
X830465Y360785D01*
X830887Y361416D01*
X944119D01*
X947040Y358495D01*
X946892Y357750D01*
X947319Y355604D01*
X948535Y353785D01*
X950354Y352569D01*
X952500Y352142D01*
X954646Y352569D01*
X956465Y353785D01*
X957681Y355604D01*
X958108Y357750D01*
X957681Y359896D01*
X956465Y361715D01*
X954646Y362931D01*
X952500Y363358D01*
X951755Y363210D01*
X947858Y367108D01*
X946776Y367830D01*
X945500Y368084D01*
X830887D01*
X830465Y368715D01*
X828646Y369931D01*
X826500Y370358D01*
D02*
G37*
%LPD*%
D34*
X945500Y364750D02*
X952500Y357750D01*
X826500Y364750D02*
X945500D01*
X833500Y393250D02*
X834000Y393750D01*
X833500Y384500D02*
Y393250D01*
Y384500D02*
X843000Y375000D01*
X952750D01*
D37*
X858133Y488883D02*
X883883D01*
X831000Y539000D02*
X883750D01*
X813250Y521250D02*
X831000Y539000D01*
X813250Y463750D02*
X831500Y445500D01*
X838500Y438500D02*
X857750D01*
X813250Y463750D02*
Y521250D01*
D39*
X883883Y488883D02*
X884250Y489250D01*
X857750Y488500D02*
X858133Y488883D01*
D43*
X943625Y397125D02*
D03*
D49*
X757750Y518500D02*
D03*
Y408500D02*
D03*
D50*
X857750Y438500D02*
D03*
Y488500D02*
D03*
D51*
X952500Y357750D02*
D03*
X1085500Y465125D02*
D03*
Y519375D02*
D03*
X1051750Y489000D02*
D03*
X990000Y442750D02*
D03*
X757000Y551250D02*
D03*
X783750Y430250D02*
D03*
X795750Y405500D02*
D03*
X757500Y445250D02*
D03*
X757250Y475500D02*
D03*
X1085500Y438000D02*
D03*
Y546500D02*
D03*
Y492250D02*
D03*
X1016750Y488000D02*
D03*
X952500Y374250D02*
D03*
X826500Y364750D02*
D03*
X923750Y354250D02*
D03*
X842250Y456000D02*
D03*
X821750Y451750D02*
D03*
X834500Y445250D02*
D03*
X821250Y437750D02*
D03*
X808250Y448500D02*
D03*
X826500Y551750D02*
D03*
X831000Y539000D02*
D03*
X813750Y538250D02*
D03*
X844250Y524500D02*
D03*
X874250D02*
D03*
X859250D02*
D03*
X874250Y539500D02*
D03*
X859250D02*
D03*
X844250Y554500D02*
D03*
X874250D02*
D03*
X859250D02*
D03*
X844250Y539500D02*
D03*
X798250Y463750D02*
D03*
X828250D02*
D03*
X813250D02*
D03*
X798250Y523750D02*
D03*
Y493750D02*
D03*
X813250Y523750D02*
D03*
X828250D02*
D03*
X813250Y508750D02*
D03*
X828250D02*
D03*
X798250D02*
D03*
X813250Y493750D02*
D03*
X828250D02*
D03*
X813250Y478750D02*
D03*
X828250D02*
D03*
X798250D02*
D03*
X832250Y429750D02*
D03*
Y414750D02*
D03*
X874000Y399750D02*
D03*
X832250D02*
D03*
X994250Y390000D02*
D03*
X979250Y405000D02*
D03*
X964250D02*
D03*
X949250D02*
D03*
X904250D02*
D03*
X919250D02*
D03*
X934250D02*
D03*
X889250Y390000D02*
D03*
X1019000Y453000D02*
D03*
X1034000D02*
D03*
X1064000D02*
D03*
Y438000D02*
D03*
X1019000Y423000D02*
D03*
X1049000D02*
D03*
X1064000D02*
D03*
X1034000Y408000D02*
D03*
X934250Y390000D02*
D03*
X919250D02*
D03*
X904250D02*
D03*
X949250D02*
D03*
X964250D02*
D03*
X979250D02*
D03*
X994250Y405000D02*
D03*
X889250D02*
D03*
X1034000Y438000D02*
D03*
X1019000D02*
D03*
X1049000Y453000D02*
D03*
Y438000D02*
D03*
Y408000D02*
D03*
X1064000D02*
D03*
X1019000D02*
D03*
X1034000Y423000D02*
D03*
X927250Y524500D02*
D03*
X942250Y554500D02*
D03*
X927250D02*
D03*
X889000Y555750D02*
D03*
Y540750D02*
D03*
X912250Y554500D02*
D03*
X889250Y435000D02*
D03*
Y450000D02*
D03*
X942250Y524500D02*
D03*
X912250Y539500D02*
D03*
Y524500D02*
D03*
X889250Y480000D02*
D03*
Y420000D02*
D03*
Y465000D02*
D03*
X942250Y539500D02*
D03*
X927250D02*
D03*
X973000Y544000D02*
D03*
X988000Y484000D02*
D03*
Y469000D02*
D03*
Y514000D02*
D03*
Y499000D02*
D03*
X1048000Y529000D02*
D03*
X1003000D02*
D03*
X988000D02*
D03*
X1048000Y559000D02*
D03*
X1063000Y544000D02*
D03*
X1033000D02*
D03*
X1018000D02*
D03*
X1048000D02*
D03*
X1063000Y559000D02*
D03*
X1033000D02*
D03*
X973000Y514000D02*
D03*
Y499000D02*
D03*
X1018000Y529000D02*
D03*
X1033000D02*
D03*
X1063000D02*
D03*
X1003000Y544000D02*
D03*
X1018000Y559000D02*
D03*
X988000Y544000D02*
D03*
X973000Y529000D02*
D03*
Y484000D02*
D03*
Y469000D02*
D03*
X1003000Y559000D02*
D03*
X988000D02*
D03*
X922250Y497500D02*
D03*
X937250D02*
D03*
X952250D02*
D03*
Y482500D02*
D03*
X937250D02*
D03*
X922250D02*
D03*
Y467500D02*
D03*
X937250D02*
D03*
X952250D02*
D03*
D52*
X877750Y400500D02*
D03*
D53*
X833750Y413000D02*
D03*
D54*
X1041750Y420125D02*
D03*
D55*
X939750Y482375D02*
D03*
D56*
X979625Y495500D02*
D03*
D57*
X1014750Y543125D02*
D03*
D58*
X896250Y460125D02*
D03*
D59*
X916250Y539375D02*
D03*
M02*
