G04*
G04 #@! TF.GenerationSoftware,Altium Limited,Altium Designer,20.0.12 (288)*
G04*
G04 Layer_Color=8421504*
%FSLAX44Y44*%
%MOMM*%
G71*
G01*
G75*
%ADD13O,0.4200X1.7800*%
%ADD14R,3.1000X3.0000*%
%ADD15R,0.9000X0.6000*%
%ADD16R,0.6000X0.9000*%
%ADD17R,0.8000X0.7000*%
%ADD18R,4.3500X4.5000*%
%ADD19R,5.6000X4.0000*%
%ADD20R,2.5000X2.3000*%
%ADD21R,3.0000X0.8000*%
D13*
X904250Y367100D02*
D03*
X910750D02*
D03*
X917250D02*
D03*
X923750D02*
D03*
X930250D02*
D03*
X936750D02*
D03*
X943250D02*
D03*
X904250Y426500D02*
D03*
X910750D02*
D03*
X917250D02*
D03*
X923750D02*
D03*
X930250D02*
D03*
X936750D02*
D03*
X943250D02*
D03*
D14*
X923750Y396800D02*
D03*
D15*
X963000Y357200D02*
D03*
Y372800D02*
D03*
X1080250Y357450D02*
D03*
Y373050D02*
D03*
X1062500D02*
D03*
Y357450D02*
D03*
X886000Y373050D02*
D03*
Y357450D02*
D03*
X841000D02*
D03*
Y373050D02*
D03*
X889000Y519050D02*
D03*
Y503450D02*
D03*
X1098750Y373050D02*
D03*
Y357450D02*
D03*
X863500Y373050D02*
D03*
Y357450D02*
D03*
D16*
X946700Y446750D02*
D03*
X962300D02*
D03*
X916000Y445750D02*
D03*
X931600D02*
D03*
D17*
X901700Y502000D02*
D03*
Y489750D02*
D03*
Y476250D02*
D03*
Y464000D02*
D03*
X962950D02*
D03*
Y476250D02*
D03*
Y489750D02*
D03*
Y502000D02*
D03*
X963600Y520750D02*
D03*
Y533000D02*
D03*
Y546500D02*
D03*
Y558750D02*
D03*
X902350D02*
D03*
Y546500D02*
D03*
Y533000D02*
D03*
Y520750D02*
D03*
D18*
X938200Y483000D02*
D03*
X927100Y539750D02*
D03*
D19*
X1041750Y549250D02*
D03*
Y439250D02*
D03*
D20*
X876750Y400500D02*
D03*
X833750D02*
D03*
D21*
X1039304Y397000D02*
D03*
X988250D02*
D03*
M02*
